{
.appVersion = "3039";
.formatVersion = 3;
date = "2021-01-10 03:36:30 +0000";
familyName = "Eorzea-Blackletter";
fontMaster = (
{
id = m01;
metricValues = (
{
over = 16;
pos = 800;
},
{
over = 16;
pos = 700;
},
{
over = 16;
pos = 500;
},
{
over = -16;
},
{
over = -16;
pos = -200;
}
);
name = Regular;
}
);
glyphs = (
{
glyphname = A;
lastChange = "2021-01-10 03:11:32 +0000";
layers = (
{
layerId = m01;
shapes = (
{
attr = {
fillColor = (0,255);
};
closed = 1;
nodes = (
(306,570,l),
(305,524,l),
(305,524,o),
(471,634,o),
(527,647,c),
(557,654,o),
(612,614,o),
(642,602,c),
(664,594,o),
(691,576,o),
(709,580,c),
(727,585,o),
(734,613,o),
(748,628,c),
(764,647,o),
(806,683,o),
(809,690,c),
(812,697,o),
(782,670,o),
(768,675,c),
(732,688,o),
(660,778,o),
(594,768,c),
(518,756,o),
(306,570,o),
(306,570,c)
);
},
{
attr = {
fillColor = (0,255);
};
closed = 1;
nodes = (
(297,369,l),
(291,329,l),
(291,329,o),
(442,411,o),
(496,411,c),
(550,411,o),
(600,323,o),
(601,277,c),
(601,221,o),
(599,169,o),
(536,167,c),
(455,163,o),
(341,242,o),
(286,288,c),
(287,246,l),
(287,246,o),
(467,102,o),
(554,97,c),
(704,90,o),
(745,160,o),
(751,294,c),
(755,376,o),
(700,528,o),
(590,530,c),
(510,531,o),
(297,369,o),
(297,369,c)
);
},
{
attr = {
fillColor = (0,255);
};
closed = 1;
nodes = (
(262,576,l),
(261,583,o),
(204,533,o),
(173,532,c),
(145,531,o),
(101,566,o),
(102,608,c),
(103,653,o),
(161,698,o),
(209,697,c),
(256,696,o),
(304,641,o),
(300,590,c),
(291,489,o),
(260,138,o),
(260,138,c),
(260,138,o),
(204,158,o),
(176,155,c),
(68,146,o),
(31,33,o),
(30,-22,c),
(28,-137,o),
(168,-183,o),
(231,-181,c),
(382,-177,o),
(385,-18,o),
(381,-11,c),
(377,-4,o),
(368,-147,o),
(206,-141,c),
(145,-139,o),
(65,-82,o),
(61,-25,c),
(56,52,o),
(80,61,o),
(137,60,c),
(172,59,o),
(253,-30,o),
(253,-30,c),
(253,-30,o),
(284,24,o),
(301,49,c),
(322,79,o),
(375,141,o),
(379,151,c),
(383,161,o),
(343,113,o),
(326,110,c),
(310,108,o),
(286,128,o),
(286,128,c),
(286,128,o),
(309,486,o),
(318,593,c),
(323,650,o),
(267,718,o),
(212,721,c),
(146,724,o),
(76,673,o),
(72,607,c),
(70,560,o),
(116,492,o),
(176,491,c),
(230,490,o),
(262,569,o),
(262,576,c)
);
}
);
width = 839;
}
);
unicode = 65;
},
{
glyphname = B;
lastChange = "2021-01-10 03:23:30 +0000";
layers = (
{
layerId = m01;
shapes = (
{
attr = {
fillColor = (0,255);
};
closed = 1;
nodes = (
(89,125,l),
(82,144,o),
(80,164,o),
(81,186,c),
(97,534,o),
(443,774,o),
(594,776,c),
(701,777,o),
(798,714,o),
(793,615,c),
(786,469,o),
(742,423,o),
(672,358,c),
(589,281,o),
(442,247,o),
(411,246,c),
(370,246,o),
(382,247,o),
(382,247,c),
(382,596,l),
(382,596,o),
(208,472,o),
(163,344,c),
(135,267,o),
(89,85,o),
(365,115,c),
(492,129,o),
(697,263,o),
(697,263,c),
(697,263,o),
(489,15,o),
(315,18,c),
(294,19,o),
(253,-21,o),
(253,-21,c),
(253,-21,o),
(146,61,o),
(111,62,c),
(54,63,o),
(56,61,o),
(61,-16,c),
(65,-73,o),
(145,-130,o),
(206,-132,c),
(368,-138,o),
(377,5,o),
(381,-2,c),
(385,-9,o),
(382,-168,o),
(231,-172,c),
(168,-174,o),
(28,-128,o),
(30,-13,c),
(31,23,o),
(47,84,o),
(89,125,c)
);
},
{
attr = {
fillColor = (0,255);
};
closed = 1;
nodes = (
(522,701,o),
(408,612,o),
(408,612,c),
(409,273,l),
(409,273,o),
(651,338,o),
(655,576,c),
(655,626,o),
(639,687,o),
(589,693,c),
(589,693,l)
);
}
);
width = 823;
}
);
unicode = 66;
},
{
glyphname = C;
lastChange = "2021-01-10 03:36:13 +0000";
layers = (
{
layerId = m01;
shapes = (
{
attr = {
fillColor = (0,255);
};
closed = 1;
nodes = (
(194,196,o),
(167,270,o),
(170,371,c),
(175,592,o),
(558,776,o),
(675,778,c),
(689,779,o),
(743,778,o),
(743,778,c),
(743,53,l),
(743,53,o),
(672,-15,o),
(633,-16,c),
(570,-18,o),
(426,-8,o),
(315,67,c),
(310,60,o),
(305,54,o),
(301,49,c),
(284,24,o),
(253,-30,o),
(253,-30,c),
(253,-30,o),
(172,59,o),
(137,60,c),
(80,61,o),
(56,52,o),
(61,-25,c),
(65,-82,o),
(145,-139,o),
(206,-141,c),
(368,-147,o),
(377,-4,o),
(381,-11,c),
(385,-18,o),
(382,-177,o),
(231,-181,c),
(168,-183,o),
(28,-137,o),
(30,-22,c),
(31,33,o),
(68,146,o),
(176,155,c),
(237,140,l),
(237,140,l)
);
},
{
attr = {
fillColor = (0,255);
};
closed = 1;
nodes = (
(632,691,o),
(202,519,o),
(201,323,c),
(201,94,o),
(641,18,o),
(641,18,c),
(632,691,l),
(632,691,l)
);
}
);
width = 773;
}
);
unicode = 67;
},
{
glyphname = D;
lastChange = "2021-01-10 03:27:50 +0000";
layers = (
{
layerId = m01;
shapes = (
{
attr = {
fillColor = (0,255);
};
closed = 1;
nodes = (
(646,776,l),
(727,772,o),
(821,659,o),
(821,587,c),
(821,533,o),
(788,456,o),
(744,459,c),
(682,464,o),
(691,531,o),
(691,573,c),
(692,629,o),
(688,698,o),
(636,700,c),
(450,705,o),
(698,85,o),
(353,77,c),
(246,74,o),
(92,114,o),
(92,231,c),
(94,486,o),
(547,780,o),
(646,776,c)
);
},
{
attr = {
fillColor = (0,255);
};
closed = 1;
nodes = (
(496,659,o),
(120,416,o),
(124,248,c),
(126,158,o),
(262,139,o),
(328,140,c),
(496,143,o),
(496,659,o),
(496,659,c),
(496,659,l)
);
},
{
attr = {
fillColor = (0,255);
};
closed = 1;
nodes = (
(176,155,o),
(310,108,o),
(326,110,c),
(343,113,o),
(383,161,o),
(379,151,c),
(375,141,o),
(322,79,o),
(301,49,c),
(284,24,o),
(253,-30,o),
(253,-30,c),
(253,-30,o),
(172,59,o),
(137,60,c),
(80,61,o),
(56,52,o),
(61,-25,c),
(65,-82,o),
(145,-139,o),
(206,-141,c),
(368,-147,o),
(377,-4,o),
(381,-11,c),
(385,-18,o),
(382,-177,o),
(231,-181,c),
(168,-183,o),
(28,-137,o),
(30,-22,c),
(31,33,o),
(68,146,o),
(176,155,c)
);
},
{
attr = {
fillColor = (0,255);
};
closed = 1;
nodes = (
(262,569,o),
(230,490,o),
(176,491,c),
(116,492,o),
(70,560,o),
(72,607,c),
(76,673,o),
(146,724,o),
(212,721,c),
(267,718,o),
(323,650,o),
(318,593,c),
(309,486,o),
(299,531,o),
(299,531,c),
(299,531,o),
(291,489,o),
(300,590,c),
(304,641,o),
(256,696,o),
(209,697,c),
(161,698,o),
(103,653,o),
(102,608,c),
(101,566,o),
(145,531,o),
(173,532,c),
(204,533,o),
(261,583,o),
(262,576,c),
(262,576,l)
);
}
);
width = 851;
}
);
unicode = 68;
},
{
glyphname = E;
lastChange = "2021-01-10 01:55:04 +0000";
layers = (
{
layerId = m01;
shapes = (
{
attr = {
fillColor = (0,255);
};
closed = 1;
nodes = (
(347,519,l),
(320,520,o),
(301,568,o),
(297,611,c),
(291,662,o),
(244,719,o),
(209,717,c),
(161,714,o),
(103,673,o),
(102,628,c),
(101,586,o),
(145,551,o),
(173,552,c),
(204,553,o),
(261,603,o),
(262,596,c),
(262,589,o),
(230,510,o),
(176,511,c),
(116,512,o),
(70,580,o),
(72,627,c),
(76,693,o),
(146,744,o),
(212,741,c),
(267,738,o),
(314,670,o),
(324,614,c),
(329,590,o),
(348,554,o),
(348,554,c),
(348,554,o),
(434,663,o),
(517,662,c),
(793,661,o),
(805,499,o),
(800,373,c),
(788,101,o),
(730,-5,o),
(546,11,c),
(447,20,o),
(324,101,o),
(137,80,c),
(87,74,o),
(58,54,o),
(61,-5,c),
(65,-62,o),
(145,-119,o),
(206,-121,c),
(368,-127,o),
(377,16,o),
(381,9,c),
(385,2,o),
(382,-157,o),
(231,-161,c),
(168,-163,o),
(28,-117,o),
(30,-2,c),
(31,53,o),
(70,161,o),
(177,170,c),
(177,170,o),
(229,175,o),
(302,154,c),
(364,136,o),
(443,94,o),
(511,92,c),
(620,90,o),
(653,199,o),
(661,291,c),
(187,291,l),
(267,381,l),
(662,379,l),
(657,474,o),
(622,578,o),
(473,588,c),
(387,594,o),
(394,516,o),
(347,519,c)
);
}
);
width = 831;
}
);
unicode = 69;
},
{
glyphname = F;
lastChange = "2021-01-10 02:07:04 +0000";
layers = (
{
layerId = m01;
shapes = (
{
attr = {
fillColor = (0,255);
};
closed = 1;
nodes = (
(299,662,l),
(338,732,o),
(428,784,o),
(575,781,c),
(772,778,o),
(902,693,o),
(905,634,c),
(906,607,o),
(831,516,o),
(808,515,c),
(753,513,o),
(755,702,o),
(572,701,c),
(511,700,o),
(324,622,o),
(323,527,c),
(322,417,o),
(321,134,o),
(321,32,c),
(321,-2,o),
(302,-73,o),
(302,-73,c),
(302,-73,o),
(211,65,o),
(137,60,c),
(81,55,o),
(58,34,o),
(61,-25,c),
(64,-82,o),
(145,-139,o),
(206,-141,c),
(368,-147,o),
(377,-4,o),
(381,-11,c),
(385,-18,o),
(382,-177,o),
(231,-181,c),
(168,-183,o),
(28,-137,o),
(30,-22,c),
(31,33,o),
(75,149,o),
(176,155,c),
(204,157,o),
(275,130,o),
(275,130,c),
(275,280,o),
(275,483,o),
(275,571,c),
(275,595,o),
(279,619,o),
(288,641,c),
(272,672,o),
(240,696,o),
(209,697,c),
(161,698,o),
(103,653,o),
(102,608,c),
(101,566,o),
(145,531,o),
(173,532,c),
(204,533,o),
(261,583,o),
(262,576,c),
(262,569,o),
(230,490,o),
(176,491,c),
(116,492,o),
(70,560,o),
(72,607,c),
(76,673,o),
(146,724,o),
(212,721,c),
(245,719,o),
(278,694,o),
(299,662,c)
);
}
);
width = 935;
}
);
unicode = 70;
},
{
glyphname = G;
lastChange = "2021-01-10 03:35:42 +0000";
layers = (
{
layerId = m01;
shapes = (
{
attr = {
fillColor = (0,255);
};
closed = 1;
nodes = (
(855,418,l),
(796,309,l),
(664,308,l),
(661,49,l),
(540,-17,l),
(540,-17,o),
(500,-16,o),
(475,-16,c),
(466,-16,o),
(385,-3,o),
(298,40,c),
(278,23,o),
(253,-36,o),
(253,-36,c),
(253,-36,o),
(172,53,o),
(137,54,c),
(80,55,o),
(56,46,o),
(61,-31,c),
(65,-88,o),
(145,-145,o),
(206,-147,c),
(368,-153,o),
(377,-10,o),
(381,-17,c),
(385,-24,o),
(382,-183,o),
(231,-187,c),
(168,-189,o),
(28,-143,o),
(30,-28,c),
(31,24,o),
(64,128,o),
(158,147,c),
(113,200,o),
(82,271,o),
(81,362,c),
(80,730,o),
(564,774,o),
(564,774,c),
(670,774,l),
(666,419,l),
(666,419,l)
);
},
{
attr = {
fillColor = (0,255);
};
closed = 1;
nodes = (
(535,419,l),
(534,707,l),
(534,707,o),
(130,637,o),
(133,363,c),
(135,117,o),
(437,70,o),
(480,68,c),
(510,67,o),
(536,68,o),
(536,68,c),
(535,327,l),
(352,328,l),
(413,419,l),
(535,419,l)
);
}
);
width = 885;
}
);
unicode = 71;
},
{
glyphname = H;
lastChange = "2021-01-10 02:12:42 +0000";
layers = (
{
layerId = m01;
shapes = (
{
attr = {
fillColor = (0,255);
};
closed = 1;
nodes = (
(275,698,l),
(293,700,o),
(327,743,o),
(326,726,c),
(326,710,o),
(329,378,o),
(329,378,c),
(361,414,o),
(459,464,o),
(486,483,c),
(538,517,o),
(638,585,o),
(636,639,c),
(635,665,o),
(600,671,o),
(596,691,c),
(592,708,o),
(692,724,o),
(724,724,c),
(755,723,o),
(782,679,o),
(782,644,c),
(782,606,o),
(687,512,o),
(687,512,c),
(687,512,o),
(858,502,o),
(858,338,c),
(858,91,o),
(537,-55,o),
(537,-55,c),
(537,-55,o),
(715,143,o),
(708,302,c),
(706,370,o),
(613,435,o),
(553,438,c),
(519,440,o),
(353,364,o),
(329,352,c),
(321,20,l),
(279,-37,l),
(279,-37,o),
(172,59,o),
(137,60,c),
(80,61,o),
(56,52,o),
(61,-25,c),
(65,-82,o),
(145,-139,o),
(206,-141,c),
(368,-147,o),
(377,-4,o),
(381,-11,c),
(385,-18,o),
(382,-177,o),
(231,-181,c),
(168,-183,o),
(28,-137,o),
(30,-22,c),
(31,33,o),
(68,146,o),
(176,155,c),
(279,129,l),
(279,129,o),
(285,500,o),
(284,589,c),
(284,670,o),
(226,696,o),
(209,697,c),
(161,698,o),
(103,653,o),
(102,608,c),
(101,566,o),
(145,531,o),
(173,532,c),
(204,533,o),
(261,583,o),
(262,576,c),
(262,569,o),
(230,490,o),
(176,491,c),
(116,492,o),
(70,560,o),
(72,607,c),
(76,673,o),
(146,724,o),
(212,721,c),
(234,720,o),
(257,697,o),
(275,698,c)
);
}
);
width = 888;
}
);
unicode = 72;
},
{
glyphname = I;
lastChange = "2021-01-10 02:13:05 +0000";
layers = (
{
layerId = m01;
shapes = (
{
attr = {
fillColor = (0,255);
};
closed = 1;
nodes = (
(405,596,l),
(312,595,l),
(312,595,o),
(317,615,o),
(325,622,c),
(349,647,o),
(458,744,o),
(458,744,c),
(535,743,l),
(533,526,l),
(429,35,l),
(429,35,o),
(352,28,o),
(323,17,c),
(308,12,o),
(253,-30,o),
(253,-30,c),
(253,-30,o),
(172,59,o),
(137,60,c),
(80,61,o),
(56,52,o),
(61,-25,c),
(65,-82,o),
(145,-139,o),
(206,-141,c),
(368,-147,o),
(377,-4,o),
(381,-11,c),
(385,-18,o),
(382,-177,o),
(231,-181,c),
(168,-183,o),
(28,-137,o),
(30,-22,c),
(31,33,o),
(68,146,o),
(176,155,c),
(314,127,l),
(314,127,l)
);
}
);
width = 565;
}
);
unicode = 73;
},
{
glyphname = J;
lastChange = "2021-01-10 02:14:53 +0000";
layers = (
{
layerId = m01;
shapes = (
{
attr = {
fillColor = (0,255);
};
closed = 1;
nodes = (
(756,424,l),
(711,350,l),
(282,343,l),
(298,421,l),
(298,421,l)
);
},
{
attr = {
fillColor = (0,255);
};
closed = 1;
nodes = (
(292,682,l),
(378,744,l),
(412,744,l),
(412,744,o),
(289,437,o),
(282,249,c),
(279,139,o),
(361,106,o),
(522,107,c),
(587,108,o),
(751,198,o),
(751,198,c),
(751,198,o),
(679,12,o),
(474,14,c),
(391,15,o),
(335,29,o),
(298,52,c),
(283,26,o),
(253,-20,o),
(253,-20,c),
(253,-20,o),
(172,69,o),
(137,70,c),
(80,71,o),
(56,62,o),
(61,-15,c),
(65,-72,o),
(145,-129,o),
(206,-131,c),
(368,-137,o),
(377,6,o),
(381,-1,c),
(385,-8,o),
(382,-167,o),
(231,-171,c),
(168,-173,o),
(28,-127,o),
(30,-12,c),
(31,43,o),
(41,109,o),
(148,148,c),
(194,166,o),
(231,152,o),
(231,152,c),
(228,166,o),
(227,181,o),
(226,196,c),
(224,290,o),
(283,524,o),
(300,606,c),
(309,650,o),
(241,706,o),
(209,707,c),
(161,708,o),
(103,663,o),
(102,618,c),
(101,576,o),
(145,541,o),
(173,542,c),
(204,543,o),
(261,593,o),
(262,586,c),
(262,579,o),
(230,500,o),
(176,501,c),
(116,502,o),
(70,570,o),
(72,617,c),
(76,683,o),
(146,734,o),
(212,731,c),
(242,729,o),
(271,709,o),
(292,682,c)
);
}
);
width = 786;
}
);
unicode = 74;
},
{
glyphname = K;
lastChange = "2021-01-10 02:15:17 +0000";
layers = (
{
layerId = m01;
shapes = (
{
attr = {
fillColor = (0,255);
};
closed = 1;
nodes = (
(212,731,l),
(306,733,o),
(319,610,o),
(319,610,c),
(319,610,o),
(539,731,o),
(642,731,c),
(737,731,o),
(830,698,o),
(830,562,c),
(831,274,o),
(485,347,o),
(485,347,c),
(485,347,o),
(484,215,o),
(459,150,c),
(426,63,o),
(333,50,o),
(299,22,c),
(283,9,o),
(253,-20,o),
(253,-20,c),
(253,-20,o),
(172,69,o),
(137,70,c),
(80,71,o),
(56,62,o),
(61,-15,c),
(65,-72,o),
(145,-129,o),
(206,-131,c),
(368,-137,o),
(377,6,o),
(381,-1,c),
(385,-8,o),
(382,-167,o),
(231,-171,c),
(168,-173,o),
(28,-127,o),
(30,-12,c),
(31,43,o),
(34,150,o),
(176,165,c),
(245,173,o),
(335,75,o),
(335,75,c),
(369,99,o),
(401,130,o),
(408,158,c),
(421,221,o),
(418,302,o),
(421,353,c),
(422,393,o),
(453,428,o),
(514,429,c),
(557,430,o),
(561,412,o),
(617,411,c),
(638,411,o),
(683,430,o),
(682,499,c),
(681,535,o),
(671,619,o),
(565,621,c),
(480,623,o),
(343,593,o),
(308,442,c),
(284,340,o),
(237,303,o),
(237,303,c),
(246,304,o),
(304,522,o),
(290,589,c),
(282,629,o),
(266,706,o),
(209,707,c),
(161,708,o),
(103,663,o),
(102,618,c),
(101,576,o),
(145,541,o),
(173,542,c),
(204,543,o),
(261,593,o),
(262,586,c),
(262,579,o),
(230,500,o),
(176,501,c),
(116,502,o),
(70,570,o),
(72,617,c),
(76,683,o),
(146,729,o),
(212,731,c)
);
}
);
width = 860;
}
);
unicode = 75;
},
{
glyphname = L;
lastChange = "2021-01-10 01:12:30 +0000";
layers = (
{
layerId = m01;
shapes = (
{
attr = {
fillColor = (0,255);
};
closed = 1;
nodes = (
(175,139,l),
(434,112,l),
(501,602,l),
(447,599,l),
(447,652,l),
(582,749,l),
(634,748,l),
(542,98,l),
(616,90,l),
(781,215,l),
(655,18,l),
(655,18,o),
(172,43,o),
(137,44,c),
(80,45,o),
(55,36,o),
(61,-42,c),
(65,-99,o),
(145,-155,o),
(206,-158,c),
(368,-163,o),
(376,-21,o),
(380,-27,c),
(384,-34,o),
(381,-194,o),
(230,-197,c),
(167,-199,o),
(28,-153,o),
(30,-38,c),
(31,16,o),
(68,130,o),
(175,139,c)
);
}
);
width = 811;
}
);
unicode = 76;
},
{
glyphname = M;
lastChange = "2021-01-10 02:16:28 +0000";
layers = (
{
layerId = m01;
shapes = (
{
attr = {
fillColor = (0,255);
};
closed = 1;
nodes = (
(176,162,l),
(68,153,o),
(31,40,o),
(30,-15,c),
(29,-130,o),
(168,-176,o),
(231,-174,c),
(382,-171,o),
(385,-11,o),
(381,-4,c),
(377,2,o),
(368,-140,o),
(206,-135,c),
(145,-132,o),
(65,-75,o),
(61,-18,c),
(56,59,o),
(80,68,o),
(137,67,c),
(172,66,o),
(253,-23,o),
(253,-23,c),
(253,-23,o),
(284,30,o),
(301,56,c),
(322,86,o),
(375,147,o),
(379,158,c),
(383,168,o),
(343,119,o),
(326,117,c),
(310,115,o),
(176,162,o),
(176,162,c)
);
},
{
attr = {
fillColor = (0,255);
};
closed = 1;
nodes = (
(297,719,o),
(243,669,o),
(243,621,c),
(242,533,o),
(241,323,o),
(241,228,c),
(241,180,o),
(302,75,o),
(346,75,c),
(387,74,o),
(429,76,o),
(460,92,c),
(492,107,o),
(535,166,o),
(535,166,c),
(535,166,o),
(425,170,o),
(389,171,c),
(371,171,o),
(309,207,o),
(310,246,c),
(311,317,o),
(308,616,o),
(308,616,c),
(559,175,l),
(559,175,o),
(629,59,o),
(689,58,c),
(753,57,o),
(785,168,o),
(785,168,c),
(699,140,l),
(433,627,l),
(433,627,o),
(388,718,o),
(334,718,c),
(334,718,l)
);
},
{
attr = {
fillColor = (0,255);
};
closed = 1;
nodes = (
(497,702,o),
(422,644,o),
(421,612,c),
(420,591,o),
(521,623,o),
(541,584,c),
(574,520,o),
(670,345,o),
(719,250,c),
(756,177,o),
(760,61,o),
(856,59,c),
(924,58,o),
(990,182,o),
(990,182,c),
(901,154,l),
(640,646,l),
(640,646,o),
(606,711,o),
(546,706,c),
(546,706,l)
);
}
);
width = 1020;
}
);
unicode = 77;
},
{
glyphname = N;
lastChange = "2021-01-10 02:16:51 +0000";
layers = (
{
layerId = m01;
shapes = (
{
attr = {
fillColor = (0,255);
};
closed = 1;
nodes = (
(904,654,l),
(827,542,l),
(573,542,l),
(548,567,l),
(611,653,l),
(611,653,l)
);
},
{
attr = {
fillColor = (0,255);
};
closed = 1;
nodes = (
(691,563,o),
(833,420,o),
(830,329,c),
(826,196,o),
(741,73,o),
(596,75,c),
(497,77,o),
(341,333,o),
(341,333,c),
(332,561,l),
(332,561,o),
(407,233,o),
(562,234,c),
(648,235,o),
(705,323,o),
(706,379,c),
(706,465,o),
(607,565,o),
(607,565,c),
(691,563,l),
(691,563,l)
);
},
{
attr = {
fillColor = (0,255);
};
closed = 1;
nodes = (
(282,654,l),
(282,686,o),
(242,716,o),
(209,717,c),
(161,718,o),
(103,673,o),
(102,628,c),
(101,586,o),
(145,551,o),
(173,552,c),
(204,553,o),
(261,603,o),
(262,596,c),
(262,589,o),
(230,510,o),
(176,511,c),
(116,512,o),
(70,580,o),
(72,627,c),
(76,693,o),
(146,744,o),
(212,741,c),
(254,739,o),
(296,699,o),
(312,656,c),
(343,514,l),
(349,115,l),
(349,115,o),
(314,84,o),
(300,66,c),
(284,45,o),
(253,-10,o),
(253,-10,c),
(253,-10,o),
(172,79,o),
(137,80,c),
(80,81,o),
(56,72,o),
(61,-5,c),
(65,-62,o),
(145,-119,o),
(206,-121,c),
(368,-127,o),
(377,16,o),
(381,9,c),
(385,2,o),
(382,-157,o),
(231,-161,c),
(168,-163,o),
(28,-117,o),
(30,-2,c),
(31,53,o),
(68,166,o),
(176,175,c),
(289,170,l),
(289,170,o),
(284,559,o),
(282,654,c)
);
}
);
width = 934;
}
);
unicode = 78;
},
{
glyphname = O;
lastChange = "2021-01-10 00:47:06 +0000";
layers = (
{
layerId = m01;
shapes = (
{
attr = {
fillColor = (0,255);
};
closed = 1;
nodes = (
(299,587,l),
(299,590,o),
(300,594,o),
(300,597,c),
(304,648,o),
(256,703,o),
(209,704,c),
(161,705,o),
(103,660,o),
(102,615,c),
(101,573,o),
(145,538,o),
(173,539,c),
(204,540,o),
(261,590,o),
(262,583,c),
(262,576,o),
(230,497,o),
(176,498,c),
(116,499,o),
(70,567,o),
(72,614,c),
(76,680,o),
(146,731,o),
(212,728,c),
(265,725,o),
(319,661,o),
(319,606,c),
(393,676,o),
(483,725,o),
(568,725,c),
(786,725,o),
(847,568,o),
(844,430,c),
(840,251,o),
(643,-2,o),
(435,1,c),
(370,2,o),
(320,13,o),
(280,32,c),
(266,8,o),
(253,-23,o),
(253,-23,c),
(253,-23,o),
(172,66,o),
(137,67,c),
(80,68,o),
(56,59,o),
(61,-18,c),
(65,-75,o),
(145,-132,o),
(206,-134,c),
(368,-140,o),
(377,3,o),
(381,-4,c),
(385,-11,o),
(382,-170,o),
(231,-174,c),
(168,-176,o),
(28,-130,o),
(30,-15,c),
(31,39,o),
(67,150,o),
(171,162,c),
(159,203,o),
(154,249,o),
(155,297,c),
(155,388,o),
(215,500,o),
(299,587,c)
);
},
{
attr = {
fillColor = (0,255);
};
closed = 1;
nodes = (
(362,577,o),
(237,451,o),
(218,321,c),
(193,146,o),
(341,48,o),
(444,67,c),
(630,102,o),
(692,218,o),
(731,353,c),
(755,436,o),
(682,640,o),
(496,603,c),
(496,603,l)
);
}
);
width = 874;
}
);
unicode = 79;
},
{
glyphname = P;
lastChange = "2021-01-10 02:18:01 +0000";
layers = (
{
layerId = m01;
shapes = (
{
attr = {
fillColor = (0,255);
};
closed = 1;
nodes = (
(318,617,l),
(423,714,o),
(562,756,o),
(644,751,c),
(734,746,o),
(822,725,o),
(823,697,c),
(825,657,o),
(759,637,o),
(718,637,c),
(674,638,o),
(621,678,o),
(555,677,c),
(335,677,o),
(208,455,o),
(206,301,c),
(202,85,o),
(424,123,o),
(424,123,c),
(444,471,l),
(444,471,o),
(475,472,o),
(503,475,c),
(540,478,o),
(557,548,o),
(656,546,c),
(756,544,o),
(832,461,o),
(830,352,c),
(823,101,o),
(517,21,o),
(517,21,c),
(517,21,o),
(700,229,o),
(695,319,c),
(687,479,o),
(523,449,o),
(523,449,c),
(497,79,l),
(448,25,l),
(448,25,o),
(354,24,o),
(323,25,c),
(309,25,o),
(293,41,o),
(281,34,c),
(269,26,o),
(252,-19,o),
(252,-19,c),
(252,-19,o),
(171,70,o),
(136,71,c),
(80,73,o),
(55,64,o),
(61,-14,c),
(64,-71,o),
(144,-128,o),
(205,-130,c),
(367,-136,o),
(376,7,o),
(380,0,c),
(384,-6,o),
(381,-166,o),
(230,-170,c),
(167,-172,o),
(28,-126,o),
(30,-11,c),
(31,44,o),
(67,157,o),
(175,167,c),
(209,158,l),
(189,191,o),
(175,227,o),
(173,263,c),
(168,409,o),
(223,520,o),
(299,598,c),
(299,599,o),
(299,597,o),
(299,598,c),
(303,649,o),
(255,707,o),
(208,708,c),
(160,709,o),
(102,664,o),
(101,619,c),
(100,577,o),
(145,543,o),
(172,544,c),
(203,544,o),
(261,594,o),
(261,587,c),
(262,580,o),
(230,501,o),
(176,502,c),
(115,503,o),
(69,571,o),
(72,618,c),
(75,685,o),
(145,735,o),
(212,732,c),
(263,729,o),
(315,670,o),
(318,617,c)
);
}
);
width = 860;
}
);
unicode = 80;
},
{
glyphname = Q;
lastChange = "2021-01-10 02:18:22 +0000";
layers = (
{
layerId = m01;
shapes = (
{
attr = {
fillColor = (0,255);
};
closed = 1;
nodes = (
(318,628,l),
(367,701,o),
(454,762,o),
(571,763,c),
(765,766,o),
(814,649,o),
(818,589,c),
(824,491,o),
(769,423,o),
(769,423,c),
(753,99,l),
(611,18,l),
(656,131,l),
(658,423,l),
(658,423,o),
(721,454,o),
(721,579,c),
(720,683,o),
(647,710,o),
(572,711,c),
(498,713,o),
(317,687,o),
(318,516,c),
(318,487,o),
(304,421,o),
(406,419,c),
(438,418,o),
(464,484,o),
(485,485,c),
(514,486,o),
(502,482,o),
(502,482,c),
(502,482,o),
(477,349,o),
(465,277,c),
(454,203,o),
(442,121,o),
(389,71,c),
(334,20,o),
(314,45,o),
(285,32,c),
(269,25,o),
(253,-10,o),
(253,-10,c),
(253,-10,o),
(172,79,o),
(137,80,c),
(80,81,o),
(56,72,o),
(61,-5,c),
(65,-62,o),
(145,-119,o),
(206,-121,c),
(368,-127,o),
(377,16,o),
(381,9,c),
(385,2,o),
(382,-157,o),
(231,-161,c),
(168,-163,o),
(28,-117,o),
(30,-2,c),
(31,53,o),
(68,166,o),
(176,175,c),
(176,175,o),
(333,115,o),
(374,139,c),
(416,162,o),
(416,370,o),
(416,370,c),
(416,370,o),
(276,376,o),
(275,498,c),
(275,528,o),
(283,561,o),
(298,594,c),
(299,599,o),
(299,604,o),
(300,610,c),
(304,661,o),
(256,716,o),
(209,717,c),
(161,718,o),
(103,673,o),
(102,628,c),
(101,586,o),
(145,551,o),
(173,552,c),
(204,553,o),
(261,603,o),
(262,596,c),
(262,589,o),
(230,510,o),
(176,511,c),
(116,512,o),
(70,580,o),
(72,627,c),
(76,693,o),
(146,744,o),
(212,741,c),
(263,738,o),
(313,681,o),
(318,628,c)
);
}
);
width = 848;
}
);
unicode = 81;
},
{
glyphname = R;
lastChange = "2021-01-10 02:18:44 +0000";
layers = (
{
layerId = m01;
shapes = (
{
attr = {
fillColor = (0,255);
};
closed = 1;
nodes = (
(212,741,l),
(224,738,o),
(276,715,o),
(320,681,c),
(369,644,o),
(475,694,o),
(488,696,c),
(536,704,o),
(557,751,o),
(659,753,c),
(775,754,o),
(870,625,o),
(871,571,c),
(873,479,o),
(650,375,o),
(650,375,c),
(611,113,l),
(794,160,l),
(570,25,l),
(472,25,l),
(514,432,l),
(514,432,o),
(704,436,o),
(707,571,c),
(708,612,o),
(654,675,o),
(607,673,c),
(574,672,o),
(540,655,o),
(509,635,c),
(463,607,o),
(351,610,o),
(351,610,c),
(253,-10,l),
(253,-10,o),
(172,79,o),
(137,80,c),
(80,81,o),
(56,72,o),
(61,-5,c),
(65,-62,o),
(145,-119,o),
(206,-121,c),
(368,-127,o),
(377,16,o),
(381,9,c),
(385,2,o),
(382,-157,o),
(231,-161,c),
(168,-163,o),
(28,-117,o),
(30,-2,c),
(31,53,o),
(44,174,o),
(232,166,c),
(253,338,o),
(283,557,o),
(293,638,c),
(297,661,o),
(237,716,o),
(209,717,c),
(161,718,o),
(103,673,o),
(102,628,c),
(101,586,o),
(145,551,o),
(173,552,c),
(204,553,o),
(261,603,o),
(262,596,c),
(262,589,o),
(230,510,o),
(176,511,c),
(116,512,o),
(70,580,o),
(72,627,c),
(76,693,o),
(148,755,o),
(212,741,c)
);
}
);
width = 901;
}
);
unicode = 82;
},
{
glyphname = S;
lastChange = "2021-01-10 02:19:13 +0000";
layers = (
{
layerId = m01;
shapes = (
{
attr = {
fillColor = (0,255);
};
closed = 1;
nodes = (
(319,612,l),
(377,696,o),
(515,762,o),
(589,765,c),
(675,768,o),
(833,753,o),
(836,663,c),
(838,618,o),
(773,543,o),
(773,543,c),
(773,543,o),
(684,695,o),
(571,691,c),
(508,689,o),
(355,628,o),
(339,527,c),
(336,506,o),
(326,454,o),
(320,421,c),
(330,425,o),
(492,503,o),
(613,504,c),
(826,504,o),
(805,379,o),
(803,301,c),
(798,172,o),
(587,40,o),
(587,40,c),
(484,41,l),
(484,41,o),
(653,217,o),
(656,296,c),
(659,347,o),
(613,394,o),
(569,395,c),
(462,398,o),
(312,315,o),
(312,315,c),
(253,-20,l),
(253,-20,o),
(172,69,o),
(137,70,c),
(80,71,o),
(56,62,o),
(61,-15,c),
(65,-72,o),
(145,-129,o),
(206,-131,c),
(368,-137,o),
(377,6,o),
(381,-1,c),
(385,-8,o),
(382,-167,o),
(231,-171,c),
(168,-173,o),
(28,-127,o),
(30,-12,c),
(31,43,o),
(68,156,o),
(176,165,c),
(236,150,l),
(253,277,o),
(299,589,o),
(300,600,c),
(304,651,o),
(256,706,o),
(209,707,c),
(161,708,o),
(103,663,o),
(102,618,c),
(101,576,o),
(145,541,o),
(173,542,c),
(204,543,o),
(261,593,o),
(262,586,c),
(262,579,o),
(230,500,o),
(176,501,c),
(116,502,o),
(70,570,o),
(72,617,c),
(76,683,o),
(146,734,o),
(212,731,c),
(264,728,o),
(317,667,o),
(319,612,c)
);
}
);
width = 866;
}
);
unicode = 83;
},
{
glyphname = T;
lastChange = "2021-01-10 02:19:43 +0000";
layers = (
{
layerId = m01;
shapes = (
{
attr = {
fillColor = (0,255);
};
closed = 1;
nodes = (
(463,128,l),
(463,269,o),
(464,507,o),
(463,589,c),
(463,688,o),
(358,722,o),
(289,725,c),
(217,728,o),
(30,613,o),
(30,613,c),
(30,613,o),
(197,793,o),
(352,798,c),
(439,800,o),
(577,746,o),
(577,661,c),
(576,523,o),
(576,93,o),
(576,93,c),
(576,93,o),
(514,55,o),
(490,34,c),
(475,20,o),
(436,-31,o),
(436,-31,c),
(436,-31,o),
(355,58,o),
(320,59,c),
(263,61,o),
(239,52,o),
(244,-26,c),
(248,-83,o),
(328,-140,o),
(389,-142,c),
(551,-148,o),
(559,-5,o),
(564,-12,c),
(568,-18,o),
(565,-178,o),
(414,-182,c),
(351,-184,o),
(211,-138,o),
(213,-23,c),
(214,32,o),
(232,146,o),
(358,155,c),
(394,157,o),
(463,128,o),
(463,128,c)
);
}
);
width = 607;
}
);
unicode = 84;
},
{
glyphname = U;
lastChange = "2021-01-10 02:32:18 +0000";
layers = (
{
layerId = m01;
shapes = (
{
attr = {
fillColor = (0,255);
};
closed = 1;
nodes = (
(494,590,o),
(492,590,o),
(492,590,c),
(492,590,o),
(625,740,o),
(711,740,c),
(799,740,o),
(977,573,o),
(974,409,c),
(970,233,o),
(773,-28,o),
(555,-24,c),
(481,-23,o),
(381,18,o),
(308,71,c),
(305,69,o),
(287,43,o),
(285,41,c),
(267,16,o),
(253,-16,o),
(253,-16,c),
(253,-16,o),
(172,73,o),
(137,74,c),
(80,76,o),
(56,67,o),
(61,-11,c),
(65,-68,o),
(145,-125,o),
(206,-127,c),
(368,-133,o),
(377,10,o),
(381,3,c),
(385,-3,o),
(382,-163,o),
(231,-167,c),
(168,-169,o),
(29,-123,o),
(30,-8,c),
(31,47,o),
(68,160,o),
(176,170,c),
(223,158,l),
(213,175,o),
(212,199,o),
(213,216,c),
(221,330,o),
(279,471,o),
(301,534,c),
(320,587,o),
(336,616,o),
(321,645,c),
(305,675,o),
(239,710,o),
(209,711,c),
(161,712,o),
(103,667,o),
(102,622,c),
(101,580,o),
(145,546,o),
(173,547,c),
(204,548,o),
(261,597,o),
(262,590,c),
(263,583,o),
(230,504,o),
(176,505,c),
(116,506,o),
(70,574,o),
(72,621,c),
(76,688,o),
(146,738,o),
(213,735,c),
(245,733,o),
(314,705,o),
(342,679,c),
(368,655,o),
(393,624,o),
(380,580,c),
(347,470,o),
(279,361,o),
(278,242,c),
(278,150,o),
(394,63,o),
(519,44,c),
(492,589,l),
(499,592,l),
(499,592,l)
);
},
{
attr = {
fillColor = (0,255);
};
closed = 1;
nodes = (
(632,613,l),
(635,61,l),
(758,119,o),
(830,291,o),
(829,376,c),
(826,545,o),
(696,610,o),
(632,613,c)
);
}
);
width = 1004;
}
);
unicode = 85;
},
{
glyphname = V;
lastChange = "2021-01-10 02:32:40 +0000";
layers = (
{
layerId = m01;
shapes = (
{
attr = {
fillColor = (0,255);
};
closed = 1;
nodes = (
(297,634,l),
(298,673,o),
(247,711,o),
(209,711,c),
(161,712,o),
(103,667,o),
(102,622,c),
(101,581,o),
(145,546,o),
(173,547,c),
(204,548,o),
(261,597,o),
(262,590,c),
(263,584,o),
(230,505,o),
(176,506,c),
(116,506,o),
(70,574,o),
(72,622,c),
(76,688,o),
(146,739,o),
(213,735,c),
(247,734,o),
(335,692,o),
(330,613,c),
(325,531,o),
(303,143,o),
(303,143,c),
(303,143,o),
(565,283,o),
(643,331,c),
(705,369,o),
(762,447,o),
(764,506,c),
(765,563,o),
(717,599,o),
(675,597,c),
(627,596,o),
(481,460,o),
(481,460,c),
(481,460,o),
(576,729,o),
(771,725,c),
(906,723,o),
(913,645,o),
(912,571,c),
(912,512,o),
(876,410,o),
(805,365,c),
(700,298,o),
(385,114,o),
(293,51,c),
(272,36,o),
(253,-15,o),
(253,-15,c),
(253,-15,o),
(172,73,o),
(137,74,c),
(80,76,o),
(56,67,o),
(61,-11,c),
(65,-68,o),
(145,-125,o),
(206,-127,c),
(368,-133,o),
(377,10,o),
(381,4,c),
(385,-3,o),
(382,-163,o),
(231,-167,c),
(168,-168,o),
(29,-122,o),
(30,-7,c),
(31,47,o),
(68,161,o),
(176,170,c),
(272,146,l),
(272,146,o),
(293,537,o),
(297,634,c)
);
}
);
width = 942;
}
);
unicode = 86;
},
{
glyphname = W;
lastChange = "2021-01-10 02:33:20 +0000";
layers = (
{
layerId = m01;
shapes = (
{
attr = {
fillColor = (0,255);
};
closed = 1;
nodes = (
(285,660,l),
(270,681,o),
(243,717,o),
(208,718,c),
(160,719,o),
(102,674,o),
(101,629,c),
(100,587,o),
(145,552,o),
(172,553,c),
(203,554,o),
(261,604,o),
(261,597,c),
(262,590,o),
(230,511,o),
(176,512,c),
(115,513,o),
(69,581,o),
(72,628,c),
(75,694,o),
(145,745,o),
(212,742,c),
(251,740,o),
(290,705,o),
(308,664,c),
(331,682,o),
(355,697,o),
(367,697,c),
(409,696,o),
(360,634,o),
(355,606,c),
(342,526,o),
(287,153,o),
(287,153,c),
(287,153,o),
(454,306,o),
(539,384,c),
(575,418,o),
(600,470,o),
(601,508,c),
(601,563,o),
(581,604,o),
(553,605,c),
(526,605,o),
(449,566,o),
(449,566,c),
(449,566,o),
(550,695,o),
(624,696,c),
(671,696,o),
(709,664,o),
(725,629,c),
(756,660,o),
(799,692,o),
(841,691,c),
(911,688,o),
(959,616,o),
(959,547,c),
(958,489,o),
(901,394,o),
(831,339,c),
(662,205,o),
(426,34,o),
(426,34,c),
(426,34,o),
(686,292,o),
(753,365,c),
(786,401,o),
(830,448,o),
(828,507,c),
(827,551,o),
(798,572,o),
(772,573,c),
(762,574,o),
(747,573,o),
(732,572,c),
(727,490,o),
(677,416,o),
(619,378,c),
(571,346,o),
(338,181,o),
(288,73,c),
(275,45,o),
(252,-9,o),
(252,-9,c),
(252,-9,o),
(171,80,o),
(136,81,c),
(80,82,o),
(55,73,o),
(61,-4,c),
(64,-61,o),
(145,-118,o),
(205,-120,c),
(367,-126,o),
(376,17,o),
(380,10,c),
(384,3,o),
(381,-156,o),
(230,-160,c),
(167,-162,o),
(28,-116,o),
(30,-1,c),
(31,54,o),
(67,167,o),
(175,176,c),
(244,159,l),
(244,159,o),
(333,592,o),
(285,660,c)
);
}
);
width = 989;
}
);
unicode = 87;
},
{
glyphname = X;
lastChange = "2021-01-10 02:33:42 +0000";
layers = (
{
layerId = m01;
shapes = (
{
attr = {
fillColor = (0,255);
};
closed = 1;
nodes = (
(300,620,l),
(297,667,o),
(252,715,o),
(209,716,c),
(161,717,o),
(103,672,o),
(102,627,c),
(100,585,o),
(145,550,o),
(173,551,c),
(204,552,o),
(261,601,o),
(262,595,c),
(262,588,o),
(230,509,o),
(176,510,c),
(116,510,o),
(70,578,o),
(72,626,c),
(75,692,o),
(146,743,o),
(212,739,c),
(259,737,o),
(307,687,o),
(317,637,c),
(346,663,o),
(385,681,o),
(436,681,c),
(517,681,o),
(600,579,o),
(660,459,c),
(724,501,o),
(769,537,o),
(769,563,c),
(770,606,o),
(723,619,o),
(723,619,c),
(723,619,o),
(787,652,o),
(822,652,c),
(879,652,o),
(947,650,o),
(947,605,c),
(948,524,o),
(829,444,o),
(704,366,c),
(759,248,o),
(812,152,o),
(851,150,c),
(892,148,o),
(970,198,o),
(970,198,c),
(970,198,o),
(880,36,o),
(802,36,c),
(666,36,o),
(591,189,o),
(540,307,c),
(466,255,o),
(356,163,o),
(354,113,c),
(354,93,o),
(470,65,o),
(470,65,c),
(470,65,o),
(355,63,o),
(293,36,c),
(275,27,o),
(253,-11,o),
(253,-11,c),
(253,-11,o),
(172,78,o),
(137,79,c),
(80,80,o),
(56,71,o),
(61,-6,c),
(65,-63,o),
(145,-120,o),
(206,-123,c),
(368,-128,o),
(376,14,o),
(381,8,c),
(385,1,o),
(382,-159,o),
(231,-162,c),
(168,-164,o),
(28,-118,o),
(30,-3,c),
(31,52,o),
(58,154,o),
(175,174,c),
(231,184,o),
(263,152,o),
(263,152,c),
(305,225,o),
(418,318,o),
(517,381,c),
(479,481,o),
(446,581,o),
(369,579,c),
(330,578,o),
(257,475,o),
(257,475,c),
(257,475,o),
(248,562,o),
(300,620,c)
);
}
);
width = 1000;
}
);
unicode = 88;
},
{
glyphname = Y;
lastChange = "2021-01-10 02:34:02 +0000";
layers = (
{
layerId = m01;
shapes = (
{
attr = {
fillColor = (0,255);
};
closed = 1;
nodes = (
(325,130,l),
(334,149,o),
(341,168,o),
(344,183,c),
(366,273,o),
(377,535,o),
(377,535,c),
(335,541,l),
(335,541,o),
(377,661,o),
(460,664,c),
(491,665,o),
(433,526,o),
(419,411,c),
(409,334,o),
(372,165,o),
(372,165,c),
(372,165,o),
(541,283,o),
(609,340,c),
(659,381,o),
(759,467,o),
(759,506,c),
(758,547,o),
(736,570,o),
(711,570,c),
(693,570,o),
(662,535,o),
(635,535,c),
(607,534,o),
(585,534,o),
(585,534,c),
(585,534,o),
(691,664,o),
(784,663,c),
(843,662,o),
(902,612,o),
(902,556,c),
(900,382,o),
(628,275,o),
(540,211,c),
(499,180,o),
(447,149,o),
(394,92,c),
(314,6,o),
(253,-10,o),
(253,-10,c),
(253,-10,o),
(172,79,o),
(137,80,c),
(80,81,o),
(56,72,o),
(61,-5,c),
(65,-62,o),
(145,-119,o),
(206,-121,c),
(368,-127,o),
(377,16,o),
(381,9,c),
(385,2,o),
(382,-157,o),
(231,-161,c),
(168,-163,o),
(28,-117,o),
(30,-2,c),
(31,53,o),
(33,166,o),
(176,175,c),
(228,179,o),
(310,129,o),
(325,130,c)
);
}
);
width = 932;
}
);
unicode = 89;
},
{
glyphname = Z;
lastChange = "2021-01-10 02:34:36 +0000";
layers = (
{
layerId = m01;
shapes = (
{
attr = {
fillColor = (0,255);
};
closed = 1;
nodes = (
(603,682,o),
(628,631,o),
(628,631,c),
(628,631,o),
(712,629,o),
(743,630,c),
(760,630,o),
(782,650,o),
(804,650,c),
(834,649,o),
(904,634,o),
(905,596,c),
(906,581,o),
(878,559,o),
(852,529,c),
(804,474,o),
(714,383,o),
(714,383,c),
(697,177,l),
(697,177,o),
(757,175,o),
(778,176,c),
(804,177,o),
(875,193,o),
(875,193,c),
(563,50,l),
(584,287,l),
(584,287,o),
(480,186,o),
(429,146,c),
(385,111,o),
(336,58,o),
(283,51,c),
(268,26,o),
(252,-2,o),
(252,-2,c),
(252,-2,o),
(171,87,o),
(136,88,c),
(80,90,o),
(55,81,o),
(61,3,c),
(64,-54,o),
(145,-111,o),
(205,-113,c),
(367,-119,o),
(376,24,o),
(380,17,c),
(384,11,o),
(381,-149,o),
(230,-153,c),
(167,-155,o),
(28,-109,o),
(30,6,c),
(31,61,o),
(67,174,o),
(175,184,c),
(202,177,l),
(225,234,o),
(288,309,o),
(324,343,c),
(450,462,o),
(599,496,o),
(656,469,c),
(675,460,o),
(677,457,o),
(677,457,c),
(677,456,l),
(681,459,o),
(819,558,o),
(832,571,c),
(841,580,o),
(783,559,o),
(770,559,c),
(694,559,o),
(382,558,o),
(382,558,c),
(382,558,o),
(532,685,o),
(574,684,c),
(576,684,l),
(576,684,l)
);
},
{
attr = {
fillColor = (0,255);
};
closed = 1;
nodes = (
(423,392,o),
(387,362,o),
(347,329,c),
(302,292,o),
(233,195,o),
(272,161,c),
(297,138,o),
(411,208,o),
(457,243,c),
(499,276,o),
(586,362,o),
(586,362,c),
(586,362,o),
(572,391,o),
(522,391,c),
(522,391,l)
);
}
);
width = 935;
}
);
unicode = 90;
},
{
glyphname = a;
lastChange = "2021-01-04 13:53:24 +0000";
layers = (
{
layerId = m01;
shapes = (
{
closed = 1;
nodes = (
(427,374,l),
(338,469,l),
(192,363,l),
(192,499,l),
(30,347,l),
(102,392,l),
(102,-24,l),
(40,-117,l),
(192,51,l),
(192,113,l),
(299,1,l),
(391,67,l),
(452,15,l),
(452,356,l),
(192,196,l),
(192,358,l),
(286,427,l),
(370,336,l)
);
},
{
attr = {
fillColor = (0,255);
};
closed = 1;
nodes = (
(192,191,l),
(386,313,l),
(386,67,l),
(343,36,l),
(192,191,l)
);
}
);
width = 482;
}
);
unicode = 97;
},
{
glyphname = b;
lastChange = "2021-01-09 06:02:23 +0000";
layers = (
{
layerId = m01;
shapes = (
{
attr = {
fillColor = (0,255);
};
closed = 1;
nodes = (
(335,725,l),
(171,603,l),
(217,625,l),
(217,166,l),
(335,166,l),
(335,725,l)
);
},
{
attr = {
fillColor = (0,255);
};
closed = 1;
nodes = (
(30,292,l),
(31,1,l),
(127,1,l),
(357,121,l),
(127,9,l),
(127,351,l),
(413,543,l),
(413,251,l),
(335,174,l),
(335,166,l),
(413,245,l),
(506,141,l),
(506,615,l),
(506,615,l)
);
}
);
width = 536;
}
);
unicode = 98;
},
{
glyphname = c;
lastChange = "2021-01-09 03:10:42 +0000";
layers = (
{
layerId = m01;
shapes = (
{
attr = {
fillColor = (0,255);
};
closed = 1;
nodes = (
(396,149,l),
(291,114,l),
(291,425,l),
(110,313,l),
(110,65,l),
(287,-52,l),
(30,25,l),
(30,275,l),
(311,443,l),
(295,448,l),
(396,499,l),
(396,499,l)
);
}
);
width = 426;
}
);
unicode = 99;
},
{
glyphname = d;
lastChange = "2021-01-09 06:04:21 +0000";
layers = (
{
layerId = m01;
shapes = (
{
attr = {
fillColor = (0,255);
};
closed = 1;
nodes = (
(372,727,l),
(372,156,l),
(95,1,l),
(95,12,l),
(259,101,l),
(259,648,l),
(162,595,l),
(162,595,l)
);
},
{
attr = {
fillColor = (0,255);
};
closed = 1;
nodes = (
(516,340,l),
(428,377,l),
(428,468,l),
(95,263,l),
(95,1,l),
(30,1,l),
(30,230,l),
(516,530,l),
(516,340,l)
);
}
);
width = 546;
}
);
unicode = 100;
},
{
glyphname = e;
lastChange = "2021-01-09 06:04:32 +0000";
layers = (
{
layerId = m01;
shapes = (
{
attr = {
fillColor = (0,255);
};
closed = 1;
nodes = (
(30,300,l),
(78,300,l),
(78,377,l),
(232,462,l),
(411,151,l),
(185,6,l),
(185,35,l),
(146,35,l),
(146,1,l),
(185,1,l),
(482,191,l),
(291,499,l),
(78,382,l),
(30,361,l),
(30,361,l)
);
},
{
attr = {
fillColor = (0,255);
};
closed = 1;
nodes = (
(421,205,l),
(349,265,l),
(110,265,l),
(55,205,l),
(421,205,l)
);
}
);
width = 512;
}
);
unicode = 101;
},
{
glyphname = f;
lastChange = "2021-01-09 06:05:58 +0000";
layers = (
{
layerId = m01;
shapes = (
{
attr = {
fillColor = (0,255);
};
closed = 1;
nodes = (
(283,499,l),
(439,365,l),
(439,288,l),
(360,288,l),
(360,347,l),
(238,458,l),
(118,365,l),
(117,-79,l),
(30,-79,l),
(30,302,l),
(30,302,l)
);
}
);
width = 469;
}
);
unicode = 102;
},
{
glyphname = g;
lastChange = "2021-01-09 03:09:24 +0000";
layers = (
{
layerId = m01;
shapes = (
{
attr = {
fillColor = (0,255);
};
closed = 1;
nodes = (
(335,499,l),
(399,499,l),
(399,162,l),
(263,116,l),
(335,147,l),
(335,493,l),
(104,334,l),
(104,78,l),
(260,-97,l),
(30,67,l),
(30,289,l),
(30,289,l)
);
},
{
attr = {
fillColor = (0,255);
};
closed = 1;
nodes = (
(188,315,l),
(241,383,l),
(488,383,l),
(488,315,l),
(488,315,l)
);
}
);
width = 518;
}
);
unicode = 103;
},
{
glyphname = h;
lastChange = "2021-01-09 06:08:57 +0000";
layers = (
{
layerId = m01;
shapes = (
{
attr = {
fillColor = (0,255);
};
closed = 1;
nodes = (
(203,51,l),
(224,57,l),
(107,-13,l),
(107,679,l),
(30,633,l),
(161,725,l),
(203,725,l),
(203,725,l)
);
},
{
attr = {
fillColor = (0,255);
};
closed = 1;
nodes = (
(464,417,l),
(411,469,l),
(524,442,l),
(174,253,l),
(174,262,l),
(174,262,l)
);
},
{
attr = {
fillColor = (0,255);
};
closed = 1;
nodes = (
(609,156,l),
(354,-13,l),
(532,113,l),
(339,342,l),
(416,383,l),
(416,383,l)
);
}
);
width = 639;
}
);
unicode = 104;
},
{
glyphname = i;
lastChange = "2021-01-05 18:45:40 +0000";
layers = (
{
layerId = m01;
shapes = (
{
attr = {
fillColor = (0,255);
};
closed = 1;
nodes = (
(170,493,l),
(250,451,l),
(250,72,l),
(152,1,l),
(152,474,l),
(78,414,l),
(78,362,l),
(30,362,l),
(30,382,l),
(30,382,l)
);
}
);
width = 280;
}
);
unicode = 105;
},
{
glyphname = j;
lastChange = "2021-01-09 06:10:44 +0000";
layers = (
{
layerId = m01;
shapes = (
{
attr = {
fillColor = (0,255);
};
closed = 1;
nodes = (
(250,63,l),
(569,237,l),
(569,231,l),
(149,1,l),
(149,601,l),
(30,506,l),
(250,694,l),
(250,694,l)
);
},
{
attr = {
fillColor = (0,255);
};
closed = 1;
nodes = (
(596,405,l),
(455,323,l),
(235,323,l),
(171,405,l),
(596,405,l)
);
}
);
width = 626;
}
);
unicode = 106;
},
{
glyphname = k;
lastChange = "2021-01-09 03:08:21 +0000";
layers = (
{
layerId = m01;
shapes = (
{
attr = {
fillColor = (0,255);
};
closed = 1;
nodes = (
(147,206,l),
(64,162,l),
(64,431,l),
(30,410,l),
(147,501,l),
(147,501,l)
);
},
{
attr = {
fillColor = (0,255);
};
closed = 1;
nodes = (
(342,499,l),
(440,499,l),
(440,333,l),
(276,224,l),
(276,71,l),
(84,-85,l),
(84,-79,l),
(174,-5,l),
(174,161,l),
(342,275,l),
(342,493,l),
(135,333,l),
(135,339,l),
(135,339,l)
);
}
);
width = 470;
}
);
unicode = 107;
},
{
glyphname = l;
lastChange = "2021-01-09 03:05:56 +0000";
layers = (
{
layerId = m01;
shapes = (
{
attr = {
fillColor = (0,255);
};
closed = 1;
nodes = (
(171,649,l),
(171,78,l),
(358,78,l),
(290,1,l),
(87,1,l),
(87,577,l),
(30,520,l),
(146,649,l),
(146,649,l)
);
}
);
width = 388;
}
);
unicode = 108;
},
{
glyphname = m;
lastChange = "2021-01-09 03:07:40 +0000";
layers = (
{
layerId = m01;
shapes = (
{
attr = {
fillColor = (0,255);
};
closed = 1;
nodes = (
(30,1,l),
(155,61,l),
(106,43,l),
(106,389,l),
(193,442,l),
(193,169,l),
(293,1,l),
(433,71,l),
(384,52,l),
(276,231,l),
(276,410,l),
(315,436,l),
(536,23,l),
(643,88,l),
(602,67,l),
(372,479,l),
(276,414,l),
(276,499,l),
(30,347,l),
(30,347,l)
);
}
);
width = 673;
}
);
unicode = 109;
},
{
glyphname = n;
lastChange = "2021-01-09 03:05:05 +0000";
layers = (
{
layerId = m01;
shapes = (
{
attr = {
fillColor = (0,255);
};
closed = 1;
nodes = (
(191,499,l),
(191,309,l),
(385,96,l),
(489,178,l),
(321,372,l),
(321,499,l),
(591,499,l),
(483,410,l),
(412,410,l),
(570,237,l),
(331,48,l),
(191,200,l),
(191,87,l),
(91,1,l),
(91,410,l),
(30,364,l),
(30,364,l)
);
}
);
width = 621;
}
);
unicode = 110;
},
{
glyphname = o;
lastChange = "2021-01-09 03:24:46 +0000";
layers = (
{
layerId = m01;
shapes = (
{
attr = {
fillColor = (0,255);
};
closed = 1;
nodes = (
(299,499,l),
(425,350,l),
(425,208,l),
(155,1,l),
(30,114,l),
(30,304,l),
(30,304,l)
);
},
{
attr = {
fillColor = (0,255);
};
closed = 1;
nodes = (
(106,355,l),
(106,157,l),
(210,48,l),
(326,137,l),
(326,334,l),
(233,446,l),
(106,355,l)
);
}
);
width = 455;
}
);
unicode = 111;
},
{
glyphname = p;
lastChange = "2021-01-09 06:18:01 +0000";
layers = (
{
layerId = m01;
shapes = (
{
attr = {
fillColor = (0,255);
};
closed = 1;
nodes = (
(276,460,l),
(361,392,l),
(417,431,l),
(325,499,l),
(30,294,l),
(30,131,l),
(136,-5,l),
(453,216,l),
(453,319,l),
(211,319,l),
(211,263,l),
(372,263,l),
(374,166,l),
(198,44,l),
(106,164,l),
(106,341,l),
(106,341,l)
);
},
{
attr = {
fillColor = (0,255);
};
closed = 1;
nodes = (
(40,-117,l),
(40,-123,l),
(266,52,l),
(263,263,l),
(211,263,l),
(211,15,l),
(211,15,l)
);
}
);
width = 483;
}
);
unicode = 112;
},
{
glyphname = q;
lastChange = "2021-01-09 06:18:22 +0000";
layers = (
{
layerId = m01;
shapes = (
{
attr = {
fillColor = (0,255);
};
closed = 1;
nodes = (
(126,199,l),
(205,258,l),
(205,-55,l),
(30,-117,l),
(141,-72,l),
(140,203,l),
(60,146,l),
(60,348,l),
(290,499,l),
(451,405,l),
(451,130,l),
(372,42,l),
(372,353,l),
(218,446,l),
(125,385,l),
(125,385,l)
);
}
);
width = 481;
}
);
unicode = 113;
},
{
glyphname = r;
lastChange = "2021-01-09 06:18:45 +0000";
layers = (
{
layerId = m01;
shapes = (
{
attr = {
fillColor = (0,255);
};
closed = 1;
nodes = (
(202,499,l),
(202,158,l),
(110,98,l),
(110,401,l),
(30,327,l),
(30,327,l)
);
},
{
attr = {
fillColor = (0,255);
};
closed = 1;
nodes = (
(363,499,l),
(482,412,l),
(394,336,l),
(394,-20,l),
(488,-82,l),
(567,-32,l),
(439,-121,l),
(313,-28,l),
(313,276,l),
(417,362,l),
(301,454,l),
(184,378,l),
(185,383,l),
(185,383,l)
);
}
);
width = 597;
}
);
unicode = 114;
},
{
glyphname = s;
lastChange = "2021-01-10 03:09:00 +0000";
layers = (
{
layerId = m01;
shapes = (
{
attr = {
fillColor = (0,255);
};
closed = 1;
nodes = (
(133,406,l),
(213,461,l),
(404,321,l),
(461,361,l),
(261,499,l),
(30,340,l),
(30,-21,l),
(133,81,l),
(133,81,l)
);
},
{
attr = {
fillColor = (0,255);
};
closed = 1;
nodes = (
(122,164,l),
(122,159,l),
(260,247,l),
(410,89,l),
(268,-41,l),
(488,152,l),
(336,300,l),
(122,164,l)
);
}
);
width = 518;
}
);
unicode = 115;
},
{
glyphname = t;
lastChange = "2021-01-09 23:52:03 +0000";
layers = (
{
layerId = m01;
shapes = (
{
attr = {
fillColor = (0,255);
};
closed = 1;
nodes = (
(186,584,l),
(314,473,l),
(314,1,l),
(381,53,l),
(381,503,l),
(240,622,l),
(30,498,l),
(30,498,l)
);
}
);
width = 411;
}
);
unicode = 116;
},
{
glyphname = u;
lastChange = "2021-01-09 23:57:25 +0000";
layers = (
{
layerId = m01;
shapes = (
{
attr = {
fillColor = (0,255);
};
closed = 1;
nodes = (
(288,414,l),
(84,272,l),
(229,105,l),
(229,302,l),
(443,440,l),
(628,253,l),
(325,20,l),
(555,202,l),
(374,391,l),
(305,346,l),
(305,1,l),
(229,1,l),
(30,237,l),
(167,334,l),
(86,429,l),
(202,505,l),
(202,505,l)
);
}
);
width = 658;
}
);
unicode = 117;
},
{
glyphname = v;
lastChange = "2021-01-10 00:02:23 +0000";
layers = (
{
layerId = m01;
shapes = (
{
attr = {
fillColor = (0,255);
};
closed = 1;
nodes = (
(203,499,l),
(203,70,l),
(537,292,l),
(376,421,l),
(492,499,l),
(659,369,l),
(160,36,l),
(107,-32,l),
(107,423,l),
(30,371,l),
(30,371,l)
);
}
);
width = 689;
}
);
unicode = 118;
},
{
glyphname = w;
lastChange = "2021-01-10 00:10:39 +0000";
layers = (
{
layerId = m01;
shapes = (
{
attr = {
fillColor = (0,255);
};
closed = 1;
nodes = (
(175,457,l),
(175,75,l),
(486,270,l),
(341,404,l),
(284,371,l),
(431,469,l),
(493,403,l),
(614,499,l),
(761,377,l),
(196,1,l),
(663,321,l),
(534,428,l),
(493,403,l),
(581,325,l),
(66,1,l),
(66,395,l),
(30,381,l),
(30,381,l)
);
}
);
width = 791;
}
);
unicode = 119;
},
{
glyphname = x;
lastChange = "2021-01-10 00:14:11 +0000";
layers = (
{
layerId = m01;
shapes = (
{
attr = {
fillColor = (0,255);
};
closed = 1;
nodes = (
(201,499,l),
(455,87,l),
(519,125,l),
(364,20,l),
(121,432,l),
(30,368,l),
(30,368,l)
);
},
{
attr = {
fillColor = (0,255);
};
closed = 1;
nodes = (
(473,447,l),
(543,404,l),
(137,150,l),
(197,57,l),
(101,1,l),
(41,97,l),
(484,371,l),
(377,447,l),
(377,447,l)
);
}
);
width = 573;
}
);
unicode = 120;
},
{
glyphname = y;
lastChange = "2021-01-10 00:18:10 +0000";
layers = (
{
layerId = m01;
shapes = (
{
attr = {
fillColor = (0,255);
};
closed = 1;
nodes = (
(222,499,l),
(222,117,l),
(514,321,l),
(340,450,l),
(312,435,l),
(403,499,l),
(593,370,l),
(188,87,l),
(188,-6,l),
(30,-126,l),
(126,-39,l),
(126,416,l),
(99,410,l),
(99,410,l)
);
}
);
width = 623;
}
);
unicode = 121;
},
{
glyphname = z;
lastChange = "2021-01-10 00:38:16 +0000";
layers = (
{
layerId = m01;
shapes = (
{
attr = {
fillColor = (0,255);
};
closed = 1;
nodes = (
(648,424,l),
(472,313,l),
(472,28,l),
(585,103,l),
(347,-67,l),
(347,233,l),
(30,43,l),
(30,318,l),
(472,318,l),
(642,424,l),
(192,424,l),
(277,499,l),
(648,499,l),
(648,499,l)
);
},
{
attr = {
fillColor = (0,255);
};
closed = 1;
nodes = (
(347,238,l),
(136,238,l),
(137,113,l),
(347,238,l)
);
}
);
width = 678;
}
);
unicode = 122;
},
{
glyphname = zero;
lastChange = "2021-01-10 02:37:37 +0000";
layers = (
{
layerId = m01;
shapes = (
{
attr = {
fillColor = (0,255);
};
closed = 1;
nodes = (
(241,603,l),
(358,603,o),
(452,469,o),
(452,304,c),
(452,139,o),
(358,5,o),
(241,5,c),
(125,5,o),
(30,139,o),
(30,304,c),
(30,469,o),
(125,603,o),
(241,603,c)
);
},
{
attr = {
fillColor = (0,255);
};
closed = 1;
nodes = (
(162,586,o),
(97,459,o),
(97,304,c),
(97,148,o),
(162,22,o),
(241,22,c),
(321,22,o),
(385,148,o),
(385,304,c),
(385,459,o),
(321,586,o),
(241,586,c),
(241,586,l)
);
},
{
attr = {
fillColor = (0,255);
};
closed = 1;
nodes = (
(209,292,l),
(182,337,o),
(265,376,o),
(290,322,c),
(296,310,o),
(296,279,o),
(283,265,c),
(255,233,o),
(123,133,o),
(123,133,c),
(118,152,l),
(118,152,o),
(210,234,o),
(228,260,c),
(236,272,o),
(216,279,o),
(209,292,c)
);
}
);
width = 482;
}
);
unicode = 48;
},
{
glyphname = one;
lastChange = "2021-01-10 02:38:42 +0000";
layers = (
{
layerId = m01;
shapes = (
{
attr = {
fillColor = (0,255);
};
closed = 1;
nodes = (
(305,603,l),
(510,608,o),
(538,490,o),
(534,452,c),
(520,335,o),
(330,373,o),
(433,451,c),
(556,544,o),
(433,593,o),
(328,589,c),
(206,583,o),
(218,534,o),
(217,472,c),
(215,398,o),
(217,237,o),
(217,157,c),
(217,108,o),
(177,46,o),
(134,16,c),
(84,-18,o),
(15,7,o),
(33,40,c),
(74,111,o),
(76,9,o),
(106,24,c),
(115,29,o),
(120,67,o),
(121,108,c),
(122,184,o),
(118,345,o),
(120,433,c),
(121,513,o),
(195,601,o),
(305,603,c)
);
}
);
width = 564;
}
);
unicode = 49;
},
{
glyphname = two;
lastChange = "2021-01-10 02:39:41 +0000";
layers = (
{
layerId = m01;
shapes = (
{
attr = {
fillColor = (0,255);
};
closed = 1;
nodes = (
(313,351,l),
(313,380,o),
(366,384,o),
(364,352,c),
(363,335,o),
(352,267,o),
(293,267,c),
(225,267,o),
(173,264,o),
(173,264,c),
(173,264,o),
(172,289,o),
(274,282,c),
(371,277,o),
(313,331,o),
(313,351,c)
);
},
{
attr = {
fillColor = (0,255);
};
closed = 1;
nodes = (
(305,603,l),
(510,608,o),
(538,490,o),
(534,452,c),
(520,334,o),
(331,373,o),
(433,451,c),
(556,544,o),
(433,592,o),
(328,589,c),
(207,584,o),
(218,534,o),
(217,472,c),
(214,397,o),
(217,237,o),
(217,157,c),
(217,108,o),
(177,46,o),
(134,16,c),
(84,-18,o),
(15,7,o),
(33,39,c),
(74,111,o),
(76,9,o),
(106,24,c),
(115,29,o),
(120,67,o),
(121,108,c),
(122,185,o),
(118,345,o),
(120,433,c),
(121,513,o),
(194,601,o),
(305,603,c)
);
}
);
width = 564;
}
);
unicode = 50;
},
{
glyphname = three;
lastChange = "2021-01-10 02:40:17 +0000";
layers = (
{
layerId = m01;
shapes = (
{
attr = {
fillColor = (0,255);
};
closed = 1;
nodes = (
(312,350,l),
(312,379,o),
(365,383,o),
(363,351,c),
(362,334,o),
(350,265,o),
(291,265,c),
(225,266,o),
(171,263,o),
(171,263,c),
(171,263,o),
(170,288,o),
(274,281,c),
(370,276,o),
(312,331,o),
(312,350,c)
);
},
{
attr = {
fillColor = (0,255);
};
closed = 1;
nodes = (
(312,206,l),
(312,235,o),
(365,239,o),
(363,207,c),
(362,190,o),
(350,121,o),
(291,121,c),
(225,121,o),
(171,119,o),
(171,119,c),
(171,119,o),
(170,143,o),
(274,137,c),
(370,132,o),
(312,187,o),
(312,206,c)
);
},
{
attr = {
fillColor = (0,255);
};
closed = 1;
nodes = (
(304,603,l),
(508,607,o),
(537,489,o),
(533,451,c),
(520,333,o),
(329,372,o),
(432,450,c),
(555,543,o),
(433,592,o),
(328,587,c),
(205,582,o),
(217,533,o),
(215,471,c),
(214,396,o),
(216,236,o),
(216,156,c),
(215,107,o),
(176,45,o),
(133,15,c),
(83,-20,o),
(14,6,o),
(33,38,c),
(73,110,o),
(75,8,o),
(104,23,c),
(114,28,o),
(119,66,o),
(120,107,c),
(122,184,o),
(117,344,o),
(119,432,c),
(121,513,o),
(194,600,o),
(304,603,c)
);
}
);
width = 563;
}
);
unicode = 51;
},
{
glyphname = four;
lastChange = "2021-01-10 02:40:54 +0000";
layers = (
{
layerId = m01;
shapes = (
{
attr = {
fillColor = (0,255);
};
closed = 1;
nodes = (
(204,603,l),
(242,606,o),
(280,581,o),
(296,555,c),
(354,463,o),
(566,138,o),
(565,83,c),
(563,-1,o),
(509,2,o),
(478,2,c),
(400,2,o),
(138,3,o),
(71,4,c),
(45,4,o),
(42,67,o),
(64,105,c),
(72,118,o),
(102,134,o),
(114,116,c),
(126,97,o),
(105,77,o),
(88,68,c),
(73,58,o),
(24,24,o),
(108,23,c),
(175,23,o),
(415,24,o),
(482,23,c),
(509,22,o),
(483,89,o),
(475,101,c),
(437,172,o),
(290,409,o),
(243,485,c),
(229,509,o),
(191,585,o),
(139,569,c),
(79,550,o),
(18,425,o),
(82,429,c),
(115,431,o),
(135,416,o),
(134,389,c),
(133,362,o),
(116,347,o),
(86,347,c),
(69,347,o),
(30,344,o),
(30,401,c),
(30,464,o),
(64,591,o),
(204,603,c)
);
}
);
width = 595;
}
);
unicode = 52;
},
{
glyphname = five;
lastChange = "2021-01-10 02:43:19 +0000";
layers = (
{
layerId = m01;
shapes = (
{
attr = {
fillColor = (0,255);
};
closed = 1;
nodes = (
(368,33,l),
(465,33,l),
(464,1,l),
(275,1,l),
(275,546,l),
(31,546,l),
(31,563,l),
(275,563,l),
(368,603,l),
(368,603,l)
);
},
{
attr = {
fillColor = (0,255);
};
closed = 1;
nodes = (
(30,75,l),
(31,110,o),
(36,155,o),
(113,219,c),
(146,247,o),
(253,321,o),
(299,348,c),
(328,362,o),
(310,337,o),
(310,337,c),
(310,337,o),
(139,226,o),
(101,188,c),
(79,165,o),
(42,136,o),
(47,78,c),
(49,52,o),
(75,44,o),
(76,62,c),
(76,82,o),
(107,117,o),
(130,90,c),
(143,72,o),
(139,54,o),
(122,45,c),
(108,37,o),
(83,35,o),
(72,35,c),
(45,34,o),
(30,48,o),
(30,75,c)
);
}
);
width = 495;
}
);
unicode = 53;
},
{
glyphname = six;
lastChange = "2021-01-10 02:43:58 +0000";
layers = (
{
layerId = m01;
shapes = (
{
attr = {
fillColor = (0,255);
};
closed = 1;
nodes = (
(531,591,o),
(565,464,o),
(565,401,c),
(565,344,o),
(526,347,o),
(509,347,c),
(479,347,o),
(462,362,o),
(461,389,c),
(460,416,o),
(480,431,o),
(513,429,c),
(577,425,o),
(516,550,o),
(456,569,c),
(404,585,o),
(366,509,o),
(352,485,c),
(305,409,o),
(158,172,o),
(120,101,c),
(112,89,o),
(86,22,o),
(113,23,c),
(180,24,o),
(420,23,o),
(487,23,c),
(571,24,o),
(522,58,o),
(507,68,c),
(490,77,o),
(469,97,o),
(481,116,c),
(493,134,o),
(523,118,o),
(531,105,c),
(553,67,o),
(550,4,o),
(524,4,c),
(457,3,o),
(195,2,o),
(117,2,c),
(86,2,o),
(32,-1,o),
(30,83,c),
(29,138,o),
(241,463,o),
(299,555,c),
(315,581,o),
(353,606,o),
(391,603,c),
(391,603,l)
);
}
);
width = 595;
}
);
unicode = 54;
},
{
glyphname = seven;
lastChange = "2021-01-10 02:45:44 +0000";
layers = (
{
layerId = m01;
shapes = (
{
attr = {
fillColor = (0,255);
};
closed = 1;
nodes = (
(147,603,l),
(226,604,o),
(305,572,o),
(308,479,c),
(312,384,o),
(297,37,o),
(297,37,c),
(219,38,l),
(219,38,o),
(217,383,o),
(217,478,c),
(218,538,o),
(175,570,o),
(123,570,c),
(54,570,o),
(39,535,o),
(53,534,c),
(85,531,o),
(74,498,o),
(62,495,c),
(45,490,o),
(30,505,o),
(30,527,c),
(30,576,o),
(94,603,o),
(147,603,c)
);
},
{
attr = {
fillColor = (0,255);
};
closed = 1;
nodes = (
(419,277,l),
(505,277,o),
(575,210,o),
(575,128,c),
(575,46,o),
(505,-20,o),
(419,-20,c),
(334,-20,o),
(264,46,o),
(264,128,c),
(264,210,o),
(334,277,o),
(419,277,c)
);
},
{
attr = {
fillColor = (0,255);
};
closed = 1;
nodes = (
(333,253,o),
(278,196,o),
(278,125,c),
(278,54,o),
(333,-3,o),
(401,-3,c),
(469,-3,o),
(525,54,o),
(525,125,c),
(525,196,o),
(469,253,o),
(401,253,c),
(401,253,l)
);
}
);
width = 605;
}
);
unicode = 55;
},
{
glyphname = eight;
lastChange = "2021-01-10 02:46:32 +0000";
layers = (
{
layerId = m01;
shapes = (
{
attr = {
fillColor = (0,255);
};
closed = 1;
nodes = (
(147,603,l),
(226,604,o),
(305,572,o),
(308,479,c),
(312,384,o),
(297,37,o),
(297,37,c),
(219,38,l),
(219,38,o),
(217,383,o),
(217,478,c),
(218,538,o),
(175,570,o),
(123,570,c),
(54,570,o),
(39,535,o),
(53,534,c),
(85,531,o),
(74,498,o),
(62,495,c),
(45,490,o),
(30,505,o),
(30,527,c),
(30,576,o),
(94,603,o),
(147,603,c)
);
},
{
attr = {
fillColor = (0,255);
};
closed = 1;
nodes = (
(419,277,l),
(505,277,o),
(575,210,o),
(575,128,c),
(575,46,o),
(505,-20,o),
(419,-20,c),
(334,-20,o),
(264,46,o),
(264,128,c),
(264,210,o),
(334,277,o),
(419,277,c)
);
},
{
attr = {
fillColor = (0,255);
};
closed = 1;
nodes = (
(333,253,o),
(278,196,o),
(278,125,c),
(278,54,o),
(333,-3,o),
(401,-3,c),
(469,-3,o),
(525,54,o),
(525,125,c),
(525,196,o),
(469,253,o),
(401,253,c),
(401,253,l)
);
},
{
attr = {
fillColor = (0,255);
};
closed = 1;
nodes = (
(129,342,l),
(129,314,o),
(78,310,o),
(80,341,c),
(81,357,o),
(93,423,o),
(149,422,c),
(212,422,o),
(263,425,o),
(263,425,c),
(263,425,o),
(264,401,o),
(165,407,c),
(74,413,o),
(129,360,o),
(129,342,c)
);
}
);
width = 605;
}
);
unicode = 56;
},
{
glyphname = nine;
lastChange = "2021-01-10 02:47:14 +0000";
layers = (
{
layerId = m01;
shapes = (
{
attr = {
fillColor = (0,255);
};
closed = 1;
nodes = (
(147,603,l),
(226,604,o),
(305,572,o),
(308,479,c),
(312,384,o),
(297,37,o),
(297,37,c),
(219,38,l),
(219,38,o),
(217,383,o),
(217,478,c),
(218,538,o),
(175,570,o),
(123,570,c),
(54,570,o),
(39,535,o),
(53,534,c),
(85,531,o),
(74,498,o),
(62,495,c),
(45,490,o),
(30,505,o),
(30,527,c),
(30,576,o),
(94,603,o),
(147,603,c)
);
},
{
attr = {
fillColor = (0,255);
};
closed = 1;
nodes = (
(419,277,l),
(505,277,o),
(575,210,o),
(575,128,c),
(575,46,o),
(505,-20,o),
(419,-20,c),
(334,-20,o),
(264,46,o),
(264,128,c),
(264,210,o),
(334,277,o),
(419,277,c)
);
},
{
attr = {
fillColor = (0,255);
};
closed = 1;
nodes = (
(333,253,o),
(278,196,o),
(278,125,c),
(278,54,o),
(333,-3,o),
(401,-3,c),
(469,-3,o),
(525,54,o),
(525,125,c),
(525,196,o),
(469,253,o),
(401,253,c),
(401,253,l)
);
},
{
attr = {
fillColor = (0,255);
};
closed = 1;
nodes = (
(129,342,l),
(129,314,o),
(78,310,o),
(80,341,c),
(81,357,o),
(93,423,o),
(149,422,c),
(212,422,o),
(263,425,o),
(263,425,c),
(263,425,o),
(264,401,o),
(165,407,c),
(74,413,o),
(129,360,o),
(129,342,c)
);
},
{
attr = {
fillColor = (0,255);
};
closed = 1;
nodes = (
(129,216,l),
(129,189,o),
(78,185,o),
(80,215,c),
(81,231,o),
(93,297,o),
(149,297,c),
(212,297,o),
(263,299,o),
(263,299,c),
(263,299,o),
(264,276,o),
(165,282,c),
(74,287,o),
(129,234,o),
(129,216,c)
);
}
);
width = 605;
}
);
unicode = 57;
},
{
glyphname = exclam;
lastChange = "2021-01-10 02:53:15 +0000";
layers = (
{
layerId = m01;
shapes = (
{
attr = {
fillColor = (0,255);
};
closed = 1;
nodes = (
(116,158,l),
(116,158,o),
(138,111,o),
(153,95,c),
(167,79,o),
(206,60,o),
(206,60,c),
(206,60,o),
(166,37,o),
(152,21,c),
(137,5,o),
(120,-36,o),
(120,-36,c),
(120,-36,o),
(98,4,o),
(83,20,c),
(68,35,o),
(30,57,o),
(30,57,c),
(30,57,o),
(66,78,o),
(79,93,c),
(93,110,o),
(116,158,o),
(116,158,c)
);
},
{
attr = {
fillColor = (0,255);
};
closed = 1;
nodes = (
(116,699,l),
(116,699,o),
(138,653,o),
(153,636,c),
(167,620,o),
(206,601,o),
(206,601,c),
(206,601,o),
(166,578,o),
(152,562,c),
(137,546,o),
(120,254,o),
(120,254,c),
(120,254,o),
(98,545,o),
(83,561,c),
(68,577,o),
(30,598,o),
(30,598,c),
(30,598,o),
(66,619,o),
(79,634,c),
(93,651,o),
(116,699,o),
(116,699,c)
);
}
);
width = 236;
}
);
unicode = 33;
},
{
glyphname = question;
lastChange = "2021-01-10 02:55:36 +0000";
layers = (
{
layerId = m01;
shapes = (
{
attr = {
fillColor = (0,255);
};
closed = 1;
nodes = (
(216,153,l),
(216,153,o),
(237,108,o),
(252,91,c),
(266,76,o),
(304,57,o),
(304,57,c),
(304,57,o),
(264,35,o),
(251,19,c),
(237,4,o),
(219,-36,o),
(219,-36,c),
(219,-36,o),
(199,3,o),
(185,18,c),
(170,34,o),
(133,55,o),
(133,55,c),
(133,55,o),
(167,75,o),
(179,89,c),
(195,106,o),
(216,153,o),
(216,153,c)
);
},
{
attr = {
fillColor = (0,255);
};
closed = 1;
nodes = (
(178,697,l),
(283,700,o),
(379,654,o),
(381,543,c),
(385,423,o),
(284,424,o),
(233,390,c),
(192,364,o),
(143,302,o),
(144,276,c),
(144,245,o),
(193,207,o),
(216,207,c),
(241,206,o),
(286,232,o),
(286,265,c),
(285,295,o),
(237,325,o),
(242,333,c),
(249,344,o),
(298,310,o),
(298,264,c),
(299,227,o),
(247,194,o),
(216,193,c),
(186,193,o),
(132,240,o),
(131,275,c),
(128,341,o),
(157,371,o),
(183,398,c),
(217,435,o),
(257,488,o),
(257,553,c),
(257,612,o),
(257,686,o),
(178,686,c),
(148,686,o),
(90,658,o),
(91,633,c),
(93,607,o),
(145,566,o),
(146,542,c),
(146,518,o),
(110,491,o),
(92,491,c),
(72,490,o),
(31,533,o),
(30,566,c),
(29,632,o),
(119,696,o),
(178,697,c)
);
}
);
width = 411;
}
);
unicode = 63;
},
{
glyphname = hyphen;
lastChange = "2021-01-10 02:56:38 +0000";
layers = (
{
layerId = m01;
shapes = (
{
attr = {
fillColor = (0,255);
};
closed = 1;
nodes = (
(116,354,l),
(116,354,o),
(138,308,o),
(153,291,c),
(168,275,o),
(207,256,o),
(207,256,c),
(207,256,o),
(166,233,o),
(152,217,c),
(138,201,o),
(120,160,o),
(120,160,c),
(120,160,o),
(99,200,o),
(84,216,c),
(69,231,o),
(30,253,o),
(30,253,c),
(30,253,o),
(66,274,o),
(79,289,c),
(94,306,o),
(116,354,o),
(116,354,c)
);
},
{
attr = {
fillColor = (0,255);
};
closed = 1;
nodes = (
(489,357,l),
(489,357,o),
(510,310,o),
(525,294,c),
(540,278,o),
(579,259,o),
(579,259,c),
(579,259,o),
(539,236,o),
(524,220,c),
(510,204,o),
(493,163,o),
(493,163,c),
(493,163,o),
(471,203,o),
(456,219,c),
(441,234,o),
(403,256,o),
(403,256,c),
(403,256,o),
(439,277,o),
(452,292,c),
(466,309,o),
(489,357,o),
(489,357,c)
);
},
{
attr = {
fillColor = (0,255);
};
closed = 1;
nodes = (
(440,261,l),
(440,251,l),
(192,251,l),
(192,261,l)
);
}
